<mxfile host="65bd71144e">
    <diagram id="fjY8O4Dqk8SmVNG4dj9c" name="ページ1">
        <mxGraphModel dx="1590" dy="660" grid="1" gridSize="10" guides="1" tooltips="1" connect="1" arrows="1" fold="1" page="1" pageScale="1" pageWidth="850" pageHeight="1100" math="0" shadow="0">
            <root>
                <mxCell id="0"/>
                <mxCell id="1" parent="0"/>
                <mxCell id="9" value="&lt;p style=&quot;margin: 0px ; margin-top: 4px ; text-align: center&quot;&gt;&lt;b&gt;Facility staff&lt;/b&gt;&lt;/p&gt;&lt;hr size=&quot;1&quot;&gt;&lt;p style=&quot;margin: 0px ; margin-left: 4px&quot;&gt;&lt;br&gt;&lt;/p&gt;" style="verticalAlign=top;align=left;overflow=fill;fontSize=12;fontFamily=Helvetica;html=1;" vertex="1" parent="1">
                    <mxGeometry x="300" y="288" width="160" height="70" as="geometry"/>
                </mxCell>
                <mxCell id="12" value="&lt;p style=&quot;margin: 0px ; margin-top: 4px ; text-align: center&quot;&gt;&lt;b&gt;Facility user&lt;/b&gt;&lt;/p&gt;&lt;hr size=&quot;1&quot;&gt;&lt;p style=&quot;margin: 0px ; margin-left: 4px&quot;&gt;&lt;br&gt;&lt;/p&gt;" style="verticalAlign=top;align=left;overflow=fill;fontSize=12;fontFamily=Helvetica;html=1;" vertex="1" parent="1">
                    <mxGeometry x="300" y="160" width="160" height="70" as="geometry"/>
                </mxCell>
                <mxCell id="33" value="" style="endArrow=open;html=1;endSize=12;startArrow=diamondThin;startSize=14;startFill=0;edgeStyle=orthogonalEdgeStyle;entryX=0;entryY=0.5;entryDx=0;entryDy=0;exitX=1;exitY=0.5;exitDx=0;exitDy=0;" edge="1" parent="1" source="47" target="12">
                    <mxGeometry relative="1" as="geometry">
                        <mxPoint x="180" y="195" as="sourcePoint"/>
                        <mxPoint x="440" y="70" as="targetPoint"/>
                    </mxGeometry>
                </mxCell>
                <mxCell id="34" value="1..n" style="edgeLabel;resizable=0;html=1;align=left;verticalAlign=top;" connectable="0" vertex="1" parent="33">
                    <mxGeometry x="-1" relative="1" as="geometry">
                        <mxPoint x="3" as="offset"/>
                    </mxGeometry>
                </mxCell>
                <mxCell id="35" value="1" style="edgeLabel;resizable=0;html=1;align=right;verticalAlign=top;" connectable="0" vertex="1" parent="33">
                    <mxGeometry x="1" relative="1" as="geometry">
                        <mxPoint x="-8" y="-27" as="offset"/>
                    </mxGeometry>
                </mxCell>
                <mxCell id="47" value="&lt;p style=&quot;margin: 0px ; margin-top: 4px ; text-align: center&quot;&gt;&lt;b&gt;vital&lt;/b&gt;&lt;/p&gt;&lt;hr size=&quot;1&quot;&gt;&lt;p style=&quot;margin: 0px ; margin-left: 4px&quot;&gt;&lt;br&gt;&lt;/p&gt;&lt;p style=&quot;margin: 0px ; margin-left: 4px&quot;&gt;&lt;br&gt;&lt;/p&gt;" style="verticalAlign=top;align=left;overflow=fill;fontSize=12;fontFamily=Helvetica;html=1;" vertex="1" parent="1">
                    <mxGeometry y="160" width="150" height="70" as="geometry"/>
                </mxCell>
                <mxCell id="48" value="&lt;p style=&quot;margin: 0px ; margin-top: 4px ; text-align: center&quot;&gt;&lt;b&gt;inout&lt;/b&gt;&lt;/p&gt;&lt;hr size=&quot;1&quot;&gt;&lt;p style=&quot;margin: 0px ; margin-left: 4px&quot;&gt;&lt;br&gt;&lt;/p&gt;" style="verticalAlign=top;align=left;overflow=fill;fontSize=12;fontFamily=Helvetica;html=1;" vertex="1" parent="1">
                    <mxGeometry y="260" width="150" height="70" as="geometry"/>
                </mxCell>
                <mxCell id="49" value="" style="endArrow=open;html=1;endSize=12;startArrow=diamondThin;startSize=14;startFill=0;edgeStyle=orthogonalEdgeStyle;exitX=1;exitY=0.5;exitDx=0;exitDy=0;entryX=0;entryY=0.5;entryDx=0;entryDy=0;" edge="1" parent="1" source="48" target="12">
                    <mxGeometry relative="1" as="geometry">
                        <mxPoint x="160" y="205" as="sourcePoint"/>
                        <mxPoint x="220" y="195" as="targetPoint"/>
                        <Array as="points">
                            <mxPoint x="220" y="295"/>
                            <mxPoint x="220" y="195"/>
                        </Array>
                    </mxGeometry>
                </mxCell>
                <mxCell id="50" value="1..n" style="edgeLabel;resizable=0;html=1;align=left;verticalAlign=top;" connectable="0" vertex="1" parent="49">
                    <mxGeometry x="-1" relative="1" as="geometry">
                        <mxPoint x="3" as="offset"/>
                    </mxGeometry>
                </mxCell>
                <mxCell id="51" value="1" style="edgeLabel;resizable=0;html=1;align=right;verticalAlign=top;" connectable="0" vertex="1" parent="49">
                    <mxGeometry x="1" relative="1" as="geometry">
                        <mxPoint x="-8" y="-27" as="offset"/>
                    </mxGeometry>
                </mxCell>
                <mxCell id="61" value="" style="endArrow=open;html=1;endSize=12;startArrow=diamondThin;startSize=14;startFill=0;edgeStyle=orthogonalEdgeStyle;" edge="1" parent="1" source="9">
                    <mxGeometry relative="1" as="geometry">
                        <mxPoint x="380" y="100" as="sourcePoint"/>
                        <mxPoint x="380" y="230" as="targetPoint"/>
                    </mxGeometry>
                </mxCell>
                <mxCell id="62" value="0..n" style="edgeLabel;resizable=0;html=1;align=left;verticalAlign=top;" connectable="0" vertex="1" parent="61">
                    <mxGeometry x="-1" relative="1" as="geometry">
                        <mxPoint x="10" y="-23" as="offset"/>
                    </mxGeometry>
                </mxCell>
                <mxCell id="63" value="1" style="edgeLabel;resizable=0;html=1;align=right;verticalAlign=top;" connectable="0" vertex="1" parent="61">
                    <mxGeometry x="1" relative="1" as="geometry">
                        <mxPoint x="-9" y="-3" as="offset"/>
                    </mxGeometry>
                </mxCell>
                <mxCell id="65" value="&lt;p style=&quot;margin: 0px ; margin-top: 4px ; text-align: center&quot;&gt;BP&lt;/p&gt;&lt;hr size=&quot;1&quot;&gt;&lt;p style=&quot;margin: 0px ; margin-left: 4px&quot;&gt;&lt;br&gt;&lt;/p&gt;" style="verticalAlign=top;align=left;overflow=fill;fontSize=12;fontFamily=Helvetica;html=1;" vertex="1" parent="1">
                    <mxGeometry x="-200" y="160" width="160" height="50" as="geometry"/>
                </mxCell>
                <mxCell id="66" value="&lt;p style=&quot;margin: 0px ; margin-top: 4px ; text-align: center&quot;&gt;KT&lt;/p&gt;&lt;hr size=&quot;1&quot;&gt;&lt;p style=&quot;margin: 0px ; margin-left: 4px&quot;&gt;&lt;br&gt;&lt;/p&gt;" style="verticalAlign=top;align=left;overflow=fill;fontSize=12;fontFamily=Helvetica;html=1;" vertex="1" parent="1">
                    <mxGeometry x="-200" y="220" width="160" height="50" as="geometry"/>
                </mxCell>
                <mxCell id="67" value="&lt;p style=&quot;margin: 0px ; margin-top: 4px ; text-align: center&quot;&gt;HR&lt;/p&gt;&lt;hr size=&quot;1&quot;&gt;&lt;p style=&quot;margin: 0px ; margin-left: 4px&quot;&gt;&lt;br&gt;&lt;/p&gt;" style="verticalAlign=top;align=left;overflow=fill;fontSize=12;fontFamily=Helvetica;html=1;" vertex="1" parent="1">
                    <mxGeometry x="-200" y="280" width="160" height="50" as="geometry"/>
                </mxCell>
                <mxCell id="68" value="&lt;p style=&quot;margin: 0px ; margin-top: 4px ; text-align: center&quot;&gt;SPO2&lt;/p&gt;&lt;hr size=&quot;1&quot;&gt;&lt;p style=&quot;margin: 0px ; margin-left: 4px&quot;&gt;&lt;br&gt;&lt;/p&gt;" style="verticalAlign=top;align=left;overflow=fill;fontSize=12;fontFamily=Helvetica;html=1;" vertex="1" parent="1">
                    <mxGeometry x="-200" y="338" width="160" height="50" as="geometry"/>
                </mxCell>
            </root>
        </mxGraphModel>
    </diagram>
</mxfile>